<svg xmlns="http://www.w3.org/2000/svg" xmlns:xlink="http://www.w3.org/1999/xlink" width="128" height="128" class="icon" p-id="4774" t="1723103132515" version="1.1" viewBox="0 0 1024 1024"><path fill="#DCDEE1" d="M512 0c282.784 0 512 229.216 512 512s-229.216 512-512 512S0 794.784 0 512 229.216 0 512 0z m0 32C246.912 32 32 246.912 32 512c0 265.088 214.912 480 480 480 265.088 0 480-214.912 480-480 0-265.088-214.912-480-480-480z" p-id="4775"/><path fill="#278BE6" d="M789.248 458.368H508.864v108.896h161.696A171.328 171.328 0 0 1 636.8 622.848c-9.376 10.56-19.84 20.032-31.552 28l90.464 72.576A283.904 283.904 0 0 0 789.216 458.368" p-id="4776"/><path fill="#15B457" d="M605.248 650.88a170.24 170.24 0 0 1-96.416 29.888c-50.976 0-96.256-22.624-127.744-57.92a170.688 170.688 0 0 1-33.28-55.68l-73.344 55.68-19.456 14.816a284.576 284.576 0 0 0 253.824 156.032c17.952 0 35.456-1.856 52.48-5.024a283.424 283.424 0 0 0 134.432-65.216l-90.496-72.576z" p-id="4777"/><path fill="#F0BB2F" d="M336.96 508.864c0-21.12 4.352-41.12 11.328-59.84L256.096 377.92A283.104 283.104 0 0 0 224 508.864c0 27.008 4.032 53.056 11.04 77.824 3.52 12.416 7.776 24.512 12.864 36.16 2.208 5.056 4.64 9.92 7.104 14.816l19.488-14.784 73.28-55.68a169.216 169.216 0 0 1-6.144-19.936 170.88 170.88 0 0 1-4.672-38.4" p-id="4778"/><path fill="#EC3838" d="M561.312 228.928A286.624 286.624 0 0 0 508.832 224c-102.016 0-191.264 53.76-241.568 134.4-3.2 5.12-6.464 10.24-9.344 15.584-0.64 1.248-1.216 2.56-1.856 3.84l92.192 71.2c4.192-11.232 9.344-21.952 15.68-31.936 10.56-16.64 24.032-30.976 39.488-43.104 29.184-22.848 65.472-37.056 105.408-37.056 18.4 0 35.84 3.456 52.48 8.8 19.52 6.304 37.44 15.872 53.184 28.256 2.56 1.984 5.44 3.584 7.808 5.728l5.76-5.76 74.112-74.304a283.776 283.776 0 0 0-140.864-70.752" p-id="4779"/></svg>